<svg width="745px" height="443px" viewBox="0 0 745 443" version="1.1" xmlns="http://www.w3.org/2000/svg" xmlns:xlink="http://www.w3.org/1999/xlink">
    <!-- Generator: Sketch 50.2 (55047) - http://www.bohemiancoding.com/sketch -->
    <desc>Created with Sketch.</desc>
    <defs>
        <polygon id="path-1" points="373.5 367.326566 232.279234 443 259.25 282.721094 145 169.210943 302.889617 145.826566 373.5 0 444.110383 145.826566 602 169.210943 487.75 282.721094 514.720766 443"></polygon>
        <filter x="-3.3%" y="-3.4%" width="106.6%" height="106.8%" filterUnits="objectBoundingBox" id="filter-2">
            <feOffset dx="30" dy="30" in="SourceAlpha" result="shadowOffsetInner1"></feOffset>
            <feComposite in="shadowOffsetInner1" in2="SourceAlpha" operator="arithmetic" k2="-1" k3="1" result="shadowInnerInner1"></feComposite>
            <feColorMatrix values="0 0 0 0 0.647560587   0 0 0 0 0.600330694   0 0 0 0 0.275783033  0 0 0 0.5 0" type="matrix" in="shadowInnerInner1"></feColorMatrix>
        </filter>
    </defs>
    <g id="Page-1" stroke="none" stroke-width="1" fill="none" fill-rule="evenodd">
        <g id="Desktop-HD" transform="translate(-348.000000, -59.000000)">
            <g id="logo" transform="translate(348.000000, 59.000000)">
                <g id="Star">
                    <use fill="#EEFF00" fill-rule="evenodd" xlink:href="#path-1"></use>
                    <use fill="black" fill-opacity="1" filter="url(#filter-2)" xlink:href="#path-1"></use>
                </g>
                <g id="tasky-legend" transform="translate(0.000000, 121.000000)">
                    <g id="Group">
                        <path d="M72.1642795,184.405183 C62.7279959,166.27876 106.211139,60.5381773 98.2355183,54.6948746 C90.2598978,48.8515718 22.6197295,85.4730616 9.69416977,74.7306777 C-3.23138992,63.9882939 -3.23138992,48.5452629 9.69416977,45.0129044 C22.6197295,41.4805458 173.325057,1.78057554 187.679092,1.78057554 C202.033126,1.78057554 196.441382,26.1513601 187.679092,32.4523904 C178.916801,38.7534207 142.261321,38.7534207 134.887826,45.0129044 C127.514331,51.272388 113.440581,166.27876 103.232849,184.405183 C93.0251157,202.531606 81.6005632,202.531606 72.1642795,184.405183 Z" id="Path" fill="#666666"></path>
                        <path d="M165.897817,190.488792 C159.482766,179.84131 220.707054,0.356115108 242.322945,0.356115108 C263.938837,0.356115108 333.980435,179.411258 322.855547,190.488792 C311.73066,201.566327 299.500666,196.554824 288.670741,190.488792 C277.840816,184.422761 257.225714,64.4894344 244.376682,64.4894344 C231.527651,64.4894344 210.305368,183.155928 199.929837,190.488792 C189.554307,197.821657 172.312868,201.136275 165.897817,190.488792 Z" id="Path-2" fill="#666666"></path>
                        <path d="M358.381612,66.7637617 C360.262443,81.4569483 388.953178,78.0394054 413.590255,82.2030032 C443.817547,87.3113322 455.78252,108.602937 455.78252,126.985024 C455.78252,159.18407 363.306709,212.92146 352.885798,192.957329 C342.464887,172.993197 422.471764,152.903907 422.471764,126.985024 C422.471764,117.700445 407.466674,109.773445 389.895124,109.773445 C344.464914,109.773445 321.242111,85.7450694 324.270321,65.37657 C328.988752,33.6392188 430.446856,-15.1502488 447.544507,4.54409736 C464.642159,24.2384435 354.920233,39.723224 358.381612,66.7637617 Z" id="Path-3" fill="#666666"></path>
                        <path d="M485.64732,7.13484157 C478.976892,15.6983234 478.302907,184.464495 485.64732,191.811619 C492.991734,199.158744 506.488793,198.924724 514.139826,191.811619 C521.79086,184.698514 508.088423,146.126111 514.139826,141.203537 C520.19123,136.280964 587.783553,201.795545 602.486843,184.698514 C612.289036,173.300494 586.52429,147.892142 525.192604,108.473458 C586.528147,49.9957891 610.939138,16.2162503 598.425576,7.13484157 C579.655234,-6.48727153 518.692842,84.196328 514.139826,78.5091094 C509.586811,72.8218908 523.266106,15.6983234 514.139826,7.13484157 C505.013546,-1.42864024 492.317749,-1.42864024 485.64732,7.13484157 Z" id="Path-4" fill="#666666"></path>
                        <path d="M667.226331,186.592298 C658.893167,172.163128 671.577476,84.317714 667.226331,76.8762823 C662.875186,69.4348505 610.032117,21.1672243 622.296466,3.81954108 C634.560814,-13.5281421 674.004127,47.418733 682.593356,47.418733 C691.182586,47.418733 733.024825,-13.5281421 743.372425,3.81954108 C753.720025,21.1672243 701.719381,67.0996065 698.090378,76.8762823 C694.461375,86.652958 705.879319,171.502814 698.090378,186.592298 C690.301436,201.681782 675.559495,201.021468 667.226331,186.592298 Z" id="Path-5" fill="#3C70C4"></path>
                    </g>
                </g>
            </g>
        </g>
    </g>
</svg>